
<svg xmlns="http://www.w3.org/2000/svg" xmlns:xlink="http://www.w3.org/1999/xlink" contentStyleType="text/css" data-diagram-type="CLASS" height="820px" preserveAspectRatio="none" style="width:884px;height:820px;background:#FFFFFF;" version="1.1" viewBox="0 0 884 820" width="884px" zoomAndPan="magnify"><defs/><g><!--class users--><g id="elem_users"><rect codeLine="5" fill="#FFFFFF" height="92.8906" id="users" rx="2.5" ry="2.5" style="stroke:#000000;stroke-width:1;" width="213.4375" x="151" y="12"/><ellipse cx="235.0537" cy="26" fill="#FFFFFF" rx="9" ry="9" style="stroke:#000000;stroke-width:1;"/><path d="M239.1631,32 L231.4443,32 L231.4443,19.6094 L239.1631,19.6094 L239.1631,21.7656 L233.8975,21.7656 L233.8975,24.4375 L238.6631,24.4375 L238.6631,26.5938 L233.8975,26.5938 L233.8975,29.8438 L239.1631,29.8438 L239.1631,32 Z " fill="#000000"/><text fill="#000000" font-family="Verdana" font-size="14" lengthAdjust="spacing" textLength="37.8301" x="252.5537" y="30.8467">users</text><line style="stroke:#000000;stroke-width:1;" x1="152" x2="363.4375" y1="40" y2="40"/><ellipse cx="162" cy="53.6484" fill="#FFFFFF" rx="3" ry="3" style="stroke:#000000;stroke-width:1;"/><text fill="#000000" font-family="Verdana" font-size="14" lengthAdjust="spacing" textLength="138.5371" x="169" y="56.9951">user_id : UUID &#171;PK&#187;</text><line style="stroke:#000000;stroke-width:1;" x1="152" x2="363.4375" y1="64.2969" y2="64.2969"/><ellipse cx="162" cy="77.9453" fill="#FFFFFF" rx="3" ry="3" style="stroke:#000000;stroke-width:1;"/><text fill="#000000" font-family="Verdana" font-size="14" lengthAdjust="spacing" textLength="152.3457" x="169" y="81.292">username : VARCHAR</text><ellipse cx="162" cy="94.2422" fill="#FFFFFF" rx="3" ry="3" style="stroke:#000000;stroke-width:1;"/><text fill="#000000" font-family="Verdana" font-size="14" lengthAdjust="spacing" textLength="189.4375" x="169" y="97.5889">password_hash : VARCHAR</text></g><!--class devices--><g id="elem_devices"><rect codeLine="12" fill="#FFFFFF" height="125.4844" id="devices" rx="2.5" ry="2.5" style="stroke:#000000;stroke-width:1;" width="177.9863" x="282.5" y="334"/><ellipse cx="341.1035" cy="348" fill="#FFFFFF" rx="9" ry="9" style="stroke:#000000;stroke-width:1;"/><path d="M345.2129,354 L337.4941,354 L337.4941,341.6094 L345.2129,341.6094 L345.2129,343.7656 L339.9473,343.7656 L339.9473,346.4375 L344.7129,346.4375 L344.7129,348.5938 L339.9473,348.5938 L339.9473,351.8438 L345.2129,351.8438 L345.2129,354 Z " fill="#000000"/><text fill="#000000" font-family="Verdana" font-size="14" lengthAdjust="spacing" textLength="53.2793" x="358.6035" y="352.8467">devices</text><line style="stroke:#000000;stroke-width:1;" x1="283.5" x2="459.4863" y1="362" y2="362"/><ellipse cx="293.5" cy="375.6484" fill="#FFFFFF" rx="3" ry="3" style="stroke:#000000;stroke-width:1;"/><text fill="#000000" font-family="Verdana" font-size="14" lengthAdjust="spacing" textLength="153.9863" x="300.5" y="378.9951">device_id : UUID &#171;PK&#187;</text><line style="stroke:#000000;stroke-width:1;" x1="283.5" x2="459.4863" y1="386.2969" y2="386.2969"/><ellipse cx="293.5" cy="399.9453" fill="#FFFFFF" rx="3" ry="3" style="stroke:#000000;stroke-width:1;"/><text fill="#000000" font-family="Verdana" font-size="14" lengthAdjust="spacing" textLength="121.8096" x="300.5" y="403.292">name : VARCHAR</text><ellipse cx="293.5" cy="416.2422" fill="#FFFFFF" rx="3" ry="3" style="stroke:#000000;stroke-width:1;"/><text fill="#000000" font-family="Verdana" font-size="14" lengthAdjust="spacing" textLength="113.3809" x="300.5" y="419.5889">type : VARCHAR</text><ellipse cx="293.5" cy="432.5391" fill="#FFFFFF" rx="3" ry="3" style="stroke:#000000;stroke-width:1;"/><text fill="#000000" font-family="Verdana" font-size="14" lengthAdjust="spacing" textLength="125.125" x="300.5" y="435.8857">status : VARCHAR</text><ellipse cx="293.5" cy="448.8359" fill="#FFFFFF" rx="3" ry="3" style="stroke:#000000;stroke-width:1;"/><text fill="#000000" font-family="Verdana" font-size="14" lengthAdjust="spacing" textLength="138.1475" x="300.5" y="452.1826">user_id : UUID &#171;FK&#187;</text></g><!--class settings--><g id="elem_settings"><rect codeLine="21" fill="#FFFFFF" height="92.8906" id="settings" rx="2.5" ry="2.5" style="stroke:#000000;stroke-width:1;" width="180.5361" x="254" y="535"/><ellipse cx="286.6748" cy="549" fill="#FFFFFF" rx="9" ry="9" style="stroke:#000000;stroke-width:1;"/><path d="M290.7841,555 L283.0654,555 L283.0654,542.6094 L290.7841,542.6094 L290.7841,544.7656 L285.5185,544.7656 L285.5185,547.4375 L290.2841,547.4375 L290.2841,549.5938 L285.5185,549.5938 L285.5185,552.8438 L290.7841,552.8438 L290.7841,555 Z " fill="#000000"/><text fill="#000000" font-family="Verdana" font-size="14" lengthAdjust="spacing" textLength="108.8145" x="303.0469" y="553.8467">device_settings</text><line style="stroke:#000000;stroke-width:1;" x1="255" x2="433.5361" y1="563" y2="563"/><ellipse cx="265" cy="576.6484" fill="#FFFFFF" rx="3" ry="3" style="stroke:#000000;stroke-width:1;"/><text fill="#000000" font-family="Verdana" font-size="14" lengthAdjust="spacing" textLength="156.5361" x="272" y="579.9951">setting_id : UUID &#171;PK&#187;</text><line style="stroke:#000000;stroke-width:1;" x1="255" x2="433.5361" y1="587.2969" y2="587.2969"/><ellipse cx="265" cy="600.9453" fill="#FFFFFF" rx="3" ry="3" style="stroke:#000000;stroke-width:1;"/><text fill="#000000" font-family="Verdana" font-size="14" lengthAdjust="spacing" textLength="153.5967" x="272" y="604.292">device_id : UUID &#171;FK&#187;</text><ellipse cx="265" cy="617.2422" fill="#FFFFFF" rx="3" ry="3" style="stroke:#000000;stroke-width:1;"/><text fill="#000000" font-family="Verdana" font-size="14" lengthAdjust="spacing" textLength="152.0928" x="272" y="620.5889">settings_data : JSONB</text></g><!--class events--><g id="elem_events"><rect codeLine="28" fill="#FFFFFF" height="125.4844" id="events" rx="2.5" ry="2.5" style="stroke:#000000;stroke-width:1;" width="194.2764" x="470.5" y="519"/><ellipse cx="540.3042" cy="533" fill="#FFFFFF" rx="9" ry="9" style="stroke:#000000;stroke-width:1;"/><path d="M544.4136,539 L536.6948,539 L536.6948,526.6094 L544.4136,526.6094 L544.4136,528.7656 L539.1479,528.7656 L539.1479,531.4375 L543.9136,531.4375 L543.9136,533.5938 L539.1479,533.5938 L539.1479,536.8438 L544.4136,536.8438 L544.4136,539 Z " fill="#000000"/><text fill="#000000" font-family="Verdana" font-size="14" lengthAdjust="spacing" textLength="47.168" x="557.8042" y="537.8467">events</text><line style="stroke:#000000;stroke-width:1;" x1="471.5" x2="663.7764" y1="547" y2="547"/><ellipse cx="481.5" cy="560.6484" fill="#FFFFFF" rx="3" ry="3" style="stroke:#000000;stroke-width:1;"/><text fill="#000000" font-family="Verdana" font-size="14" lengthAdjust="spacing" textLength="147.875" x="488.5" y="563.9951">event_id : UUID &#171;PK&#187;</text><line style="stroke:#000000;stroke-width:1;" x1="471.5" x2="663.7764" y1="571.2969" y2="571.2969"/><ellipse cx="481.5" cy="584.9453" fill="#FFFFFF" rx="3" ry="3" style="stroke:#000000;stroke-width:1;"/><text fill="#000000" font-family="Verdana" font-size="14" lengthAdjust="spacing" textLength="153.5967" x="488.5" y="588.292">device_id : UUID &#171;FK&#187;</text><ellipse cx="481.5" cy="601.2422" fill="#FFFFFF" rx="3" ry="3" style="stroke:#000000;stroke-width:1;"/><text fill="#000000" font-family="Verdana" font-size="14" lengthAdjust="spacing" textLength="170.2764" x="488.5" y="604.5889">timestamp : TIMESTAMP</text><ellipse cx="481.5" cy="617.5391" fill="#FFFFFF" rx="3" ry="3" style="stroke:#000000;stroke-width:1;"/><text fill="#000000" font-family="Verdana" font-size="14" lengthAdjust="spacing" textLength="160.2549" x="488.5" y="620.8857">event_type : VARCHAR</text><ellipse cx="481.5" cy="633.8359" fill="#FFFFFF" rx="3" ry="3" style="stroke:#000000;stroke-width:1;"/><text fill="#000000" font-family="Verdana" font-size="14" lengthAdjust="spacing" textLength="89.2637" x="488.5" y="637.1826">data : JSONB</text></g><!--class notifications--><g id="elem_notifications"><rect codeLine="37" fill="#FFFFFF" height="109.1875" id="notifications" rx="2.5" ry="2.5" style="stroke:#000000;stroke-width:1;" width="210.7305" x="157" y="704"/><ellipse cx="215.6035" cy="718" fill="#FFFFFF" rx="9" ry="9" style="stroke:#000000;stroke-width:1;"/><path d="M219.7129,724 L211.9941,724 L211.9941,711.6094 L219.7129,711.6094 L219.7129,713.7656 L214.4473,713.7656 L214.4473,716.4375 L219.2129,716.4375 L219.2129,718.5938 L214.4473,718.5938 L214.4473,721.8438 L219.7129,721.8438 L219.7129,724 Z " fill="#000000"/><text fill="#000000" font-family="Verdana" font-size="14" lengthAdjust="spacing" textLength="86.0234" x="233.1035" y="722.8467">notifications</text><line style="stroke:#000000;stroke-width:1;" x1="158" x2="366.7305" y1="732" y2="732"/><ellipse cx="168" cy="745.6484" fill="#FFFFFF" rx="3" ry="3" style="stroke:#000000;stroke-width:1;"/><text fill="#000000" font-family="Verdana" font-size="14" lengthAdjust="spacing" textLength="186.7305" x="175" y="748.9951">notification_id : UUID &#171;PK&#187;</text><line style="stroke:#000000;stroke-width:1;" x1="158" x2="366.7305" y1="756.2969" y2="756.2969"/><ellipse cx="168" cy="769.9453" fill="#FFFFFF" rx="3" ry="3" style="stroke:#000000;stroke-width:1;"/><text fill="#000000" font-family="Verdana" font-size="14" lengthAdjust="spacing" textLength="138.1475" x="175" y="773.292">user_id : UUID &#171;FK&#187;</text><ellipse cx="168" cy="786.2422" fill="#FFFFFF" rx="3" ry="3" style="stroke:#000000;stroke-width:1;"/><text fill="#000000" font-family="Verdana" font-size="14" lengthAdjust="spacing" textLength="102.7578" x="175" y="789.5889">content : TEXT</text><ellipse cx="168" cy="802.5391" fill="#FFFFFF" rx="3" ry="3" style="stroke:#000000;stroke-width:1;"/><text fill="#000000" font-family="Verdana" font-size="14" lengthAdjust="spacing" textLength="131.9746" x="175" y="805.8857">is_read : BOOLEAN</text></g><!--class schedules--><g id="elem_schedules"><rect codeLine="45" fill="#FFFFFF" height="125.4844" id="schedules" rx="2.5" ry="2.5" style="stroke:#000000;stroke-width:1;" width="207.4766" x="12" y="519"/><ellipse cx="76.9712" cy="533" fill="#FFFFFF" rx="9" ry="9" style="stroke:#000000;stroke-width:1;"/><path d="M81.0806,539 L73.3618,539 L73.3618,526.6094 L81.0806,526.6094 L81.0806,528.7656 L75.8149,528.7656 L75.8149,531.4375 L80.5806,531.4375 L80.5806,533.5938 L75.8149,533.5938 L75.8149,536.8438 L81.0806,536.8438 L81.0806,539 Z " fill="#000000"/><text fill="#000000" font-family="Verdana" font-size="14" lengthAdjust="spacing" textLength="70.0342" x="94.4712" y="537.8467">schedules</text><line style="stroke:#000000;stroke-width:1;" x1="13" x2="218.4766" y1="547" y2="547"/><ellipse cx="23" cy="560.6484" fill="#FFFFFF" rx="3" ry="3" style="stroke:#000000;stroke-width:1;"/><text fill="#000000" font-family="Verdana" font-size="14" lengthAdjust="spacing" textLength="170.7412" x="30" y="563.9951">schedule_id : UUID &#171;PK&#187;</text><line style="stroke:#000000;stroke-width:1;" x1="13" x2="218.4766" y1="571.2969" y2="571.2969"/><ellipse cx="23" cy="584.9453" fill="#FFFFFF" rx="3" ry="3" style="stroke:#000000;stroke-width:1;"/><text fill="#000000" font-family="Verdana" font-size="14" lengthAdjust="spacing" textLength="138.1475" x="30" y="588.292">user_id : UUID &#171;FK&#187;</text><ellipse cx="23" cy="601.2422" fill="#FFFFFF" rx="3" ry="3" style="stroke:#000000;stroke-width:1;"/><text fill="#000000" font-family="Verdana" font-size="14" lengthAdjust="spacing" textLength="153.5967" x="30" y="604.5889">device_id : UUID &#171;FK&#187;</text><ellipse cx="23" cy="617.5391" fill="#FFFFFF" rx="3" ry="3" style="stroke:#000000;stroke-width:1;"/><text fill="#000000" font-family="Verdana" font-size="14" lengthAdjust="spacing" textLength="125.2002" x="30" y="620.8857">action : VARCHAR</text><ellipse cx="23" cy="633.8359" fill="#FFFFFF" rx="3" ry="3" style="stroke:#000000;stroke-width:1;"/><text fill="#000000" font-family="Verdana" font-size="14" lengthAdjust="spacing" textLength="183.4766" x="30" y="637.1826">schedule_time : VARCHAR</text></g><!--class zones--><g id="elem_zones"><rect codeLine="54" fill="#FFFFFF" height="92.8906" id="zones" rx="2.5" ry="2.5" style="stroke:#000000;stroke-width:1;" width="165.4014" x="614" y="350"/><ellipse cx="672.6035" cy="364" fill="#FFFFFF" rx="9" ry="9" style="stroke:#000000;stroke-width:1;"/><path d="M676.7129,370 L668.9941,370 L668.9941,357.6094 L676.7129,357.6094 L676.7129,359.7656 L671.4473,359.7656 L671.4473,362.4375 L676.2129,362.4375 L676.2129,364.5938 L671.4473,364.5938 L671.4473,367.8438 L676.7129,367.8438 L676.7129,370 Z " fill="#000000"/><text fill="#000000" font-family="Verdana" font-size="14" lengthAdjust="spacing" textLength="40.6943" x="690.1035" y="368.8467">zones</text><line style="stroke:#000000;stroke-width:1;" x1="615" x2="778.4014" y1="378" y2="378"/><ellipse cx="625" cy="391.6484" fill="#FFFFFF" rx="3" ry="3" style="stroke:#000000;stroke-width:1;"/><text fill="#000000" font-family="Verdana" font-size="14" lengthAdjust="spacing" textLength="141.4014" x="632" y="394.9951">zone_id : UUID &#171;PK&#187;</text><line style="stroke:#000000;stroke-width:1;" x1="615" x2="778.4014" y1="402.2969" y2="402.2969"/><ellipse cx="625" cy="415.9453" fill="#FFFFFF" rx="3" ry="3" style="stroke:#000000;stroke-width:1;"/><text fill="#000000" font-family="Verdana" font-size="14" lengthAdjust="spacing" textLength="121.8096" x="632" y="419.292">name : VARCHAR</text><ellipse cx="625" cy="432.2422" fill="#FFFFFF" rx="3" ry="3" style="stroke:#000000;stroke-width:1;"/><text fill="#000000" font-family="Verdana" font-size="14" lengthAdjust="spacing" textLength="138.1475" x="632" y="435.5889">user_id : UUID &#171;FK&#187;</text></g><!--class device_zones--><g id="elem_device_zones"><rect codeLine="61" fill="#FFFFFF" height="76.5938" id="device_zones" rx="2.5" ry="2.5" style="stroke:#000000;stroke-width:1;" width="177.5967" x="699.5" y="543"/><ellipse cx="737.7085" cy="557" fill="#FFFFFF" rx="9" ry="9" style="stroke:#000000;stroke-width:1;"/><path d="M741.8179,563 L734.0991,563 L734.0991,550.6094 L741.8179,550.6094 L741.8179,552.7656 L736.5522,552.7656 L736.5522,555.4375 L741.3179,555.4375 L741.3179,557.5938 L736.5522,557.5938 L736.5522,560.8438 L741.8179,560.8438 L741.8179,563 Z " fill="#000000"/><text fill="#000000" font-family="Verdana" font-size="14" lengthAdjust="spacing" textLength="93.6797" x="755.2085" y="561.8467">device_zones</text><line style="stroke:#000000;stroke-width:1;" x1="700.5" x2="876.0967" y1="571" y2="571"/><ellipse cx="710.5" cy="584.6484" fill="#FFFFFF" rx="3" ry="3" style="stroke:#000000;stroke-width:1;"/><text fill="#000000" font-family="Verdana" font-size="14" lengthAdjust="spacing" textLength="153.5967" x="717.5" y="587.9951">device_id : UUID &#171;FK&#187;</text><ellipse cx="710.5" cy="600.9453" fill="#FFFFFF" rx="3" ry="3" style="stroke:#000000;stroke-width:1;"/><text fill="#000000" font-family="Verdana" font-size="14" lengthAdjust="spacing" textLength="141.0117" x="717.5" y="604.292">zone_id : UUID &#171;FK&#187;</text><line style="stroke:#000000;stroke-width:1;" x1="700.5" x2="876.0967" y1="611.5938" y2="611.5938"/></g><!--class house--><g id="elem_house"><rect codeLine="66" fill="#FFFFFF" height="109.1875" id="house" rx="2.5" ry="2.5" style="stroke:#000000;stroke-width:1;" width="177.5967" x="168.5" y="165"/><ellipse cx="232.439" cy="179" fill="#FFFFFF" rx="9" ry="9" style="stroke:#000000;stroke-width:1;"/><path d="M236.5483,185 L228.8296,185 L228.8296,172.6094 L236.5483,172.6094 L236.5483,174.7656 L231.2827,174.7656 L231.2827,177.4375 L236.0483,177.4375 L236.0483,179.5938 L231.2827,179.5938 L231.2827,182.8438 L236.5483,182.8438 L236.5483,185 Z " fill="#000000"/><text fill="#000000" font-family="Verdana" font-size="14" lengthAdjust="spacing" textLength="42.2188" x="249.939" y="183.8467">house</text><line style="stroke:#000000;stroke-width:1;" x1="169.5" x2="345.0967" y1="193" y2="193"/><ellipse cx="179.5" cy="206.6484" fill="#FFFFFF" rx="3" ry="3" style="stroke:#000000;stroke-width:1;"/><text fill="#000000" font-family="Verdana" font-size="14" lengthAdjust="spacing" textLength="150.2197" x="186.5" y="209.9951">house_id : UUID &#171;PK&#187;</text><line style="stroke:#000000;stroke-width:1;" x1="169.5" x2="345.0967" y1="217.2969" y2="217.2969"/><ellipse cx="179.5" cy="230.9453" fill="#FFFFFF" rx="3" ry="3" style="stroke:#000000;stroke-width:1;"/><text fill="#000000" font-family="Verdana" font-size="14" lengthAdjust="spacing" textLength="153.5967" x="186.5" y="234.292">device_id : UUID &#171;FK&#187;</text><ellipse cx="179.5" cy="247.2422" fill="#FFFFFF" rx="3" ry="3" style="stroke:#000000;stroke-width:1;"/><text fill="#000000" font-family="Verdana" font-size="14" lengthAdjust="spacing" textLength="138.1475" x="186.5" y="250.5889">user_id : UUID &#171;FK&#187;</text><ellipse cx="179.5" cy="263.5391" fill="#FFFFFF" rx="3" ry="3" style="stroke:#000000;stroke-width:1;"/><text fill="#000000" font-family="Verdana" font-size="14" lengthAdjust="spacing" textLength="137.416" x="186.5" y="266.8857">address : VARCHAR</text></g><!--link users to devices--><g id="link_users_devices"><path codeLine="75" d="M355.25,113.14 C355.25,172.63 355.25,249.72 355.25,315.98 " fill="transparent" id="users-devices" style="stroke:#000000;stroke-width:1;"/><line style="stroke:#000000;stroke-width:1;" x1="351.25" x2="359.25" y1="109.14" y2="109.14"/><line style="stroke:#000000;stroke-width:1;" x1="351.25" x2="359.25" y1="112.14" y2="112.14"/><line style="stroke:#000000;stroke-width:1;" x1="355.25" x2="355.25" y1="113.14" y2="105.14"/><line style="stroke:#000000;stroke-width:1;" x1="355.25" x2="361.25" y1="325.98" y2="333.98"/><line style="stroke:#000000;stroke-width:1;" x1="355.25" x2="349.25" y1="325.98" y2="333.98"/><line style="stroke:#000000;stroke-width:1;" x1="355.25" x2="355.25" y1="325.98" y2="333.98"/><ellipse cx="355.25" cy="319.98" fill="transparent" rx="4" ry="4" style="stroke:#000000;stroke-width:1;"/><text fill="#000000" font-family="Verdana" font-size="13" lengthAdjust="spacing" textLength="33.5981" x="356.25" y="215.6269">owns</text></g><!--link devices to events--><g id="link_devices_events"><path codeLine="76" d="M447.75,467.34 C447.75,501.97 447.75,530 447.75,530 C447.75,530 438.96,530 452.27,530 " fill="transparent" id="devices-events" style="stroke:#000000;stroke-width:1;"/><line style="stroke:#000000;stroke-width:1;" x1="443.75" x2="451.75" y1="463.34" y2="463.34"/><line style="stroke:#000000;stroke-width:1;" x1="443.75" x2="451.75" y1="466.34" y2="466.34"/><line style="stroke:#000000;stroke-width:1;" x1="447.75" x2="447.75" y1="467.34" y2="459.34"/><line style="stroke:#000000;stroke-width:1;" x1="462.27" x2="470.27" y1="530" y2="524"/><line style="stroke:#000000;stroke-width:1;" x1="462.27" x2="470.27" y1="530" y2="536"/><line style="stroke:#000000;stroke-width:1;" x1="462.27" x2="470.27" y1="530" y2="530"/><ellipse cx="456.27" cy="530" fill="transparent" rx="4" ry="4" style="stroke:#000000;stroke-width:1;"/><text fill="#000000" font-family="Verdana" font-size="13" lengthAdjust="spacing" textLength="65.6665" x="381.75" y="518.9969">generates</text></g><!--link devices to settings--><g id="link_devices_settings"><path codeLine="77" d="M384.17,467.13 C384.17,491.87 384.17,503.8 384.17,526.73 " fill="transparent" id="devices-settings" style="stroke:#000000;stroke-width:1;"/><line style="stroke:#000000;stroke-width:1;" x1="380.17" x2="388.17" y1="463.13" y2="463.13"/><line style="stroke:#000000;stroke-width:1;" x1="380.17" x2="388.17" y1="466.13" y2="466.13"/><line style="stroke:#000000;stroke-width:1;" x1="384.17" x2="384.17" y1="467.13" y2="459.13"/><line style="stroke:#000000;stroke-width:1;" x1="388.17" x2="380.17" y1="530.73" y2="530.73"/><line style="stroke:#000000;stroke-width:1;" x1="388.17" x2="380.17" y1="527.73" y2="527.73"/><line style="stroke:#000000;stroke-width:1;" x1="384.17" x2="384.17" y1="526.73" y2="534.73"/><text fill="#000000" font-family="Verdana" font-size="13" lengthAdjust="spacing" textLength="22.9785" x="361.17" y="492.9969">has</text></g><!--link events to notifications--><g id="link_events_notifications"><path codeLine="78" d="M470.16,636 C397.6,636 311,636 311,636 C311,636 311,653.08 311,685.7 " fill="transparent" id="events-to-notifications" style="stroke:#000000;stroke-width:1;"/><line style="stroke:#000000;stroke-width:1;" x1="311" x2="317" y1="695.7" y2="703.7"/><line style="stroke:#000000;stroke-width:1;" x1="311" x2="305" y1="695.7" y2="703.7"/><line style="stroke:#000000;stroke-width:1;" x1="311" x2="311" y1="695.7" y2="703.7"/><ellipse cx="311" cy="689.7" fill="transparent" rx="4" ry="4" style="stroke:#000000;stroke-width:1;"/><text fill="#000000" font-family="Verdana" font-size="13" lengthAdjust="spacing" textLength="50.6733" x="305.73" y="649.0669">triggers</text></g><!--link users to notifications--><g id="link_users_notifications"><path codeLine="79" d="M162.67,113.25 C162.67,184.48 162.67,304 162.67,304 C162.67,304 236.5,304 236.5,304 C236.5,304 236.5,564.79 236.5,685.68 " fill="transparent" id="users-notifications" style="stroke:#000000;stroke-width:1;"/><line style="stroke:#000000;stroke-width:1;" x1="158.67" x2="166.67" y1="109.25" y2="109.25"/><line style="stroke:#000000;stroke-width:1;" x1="158.67" x2="166.67" y1="112.25" y2="112.25"/><line style="stroke:#000000;stroke-width:1;" x1="162.67" x2="162.67" y1="113.25" y2="105.25"/><line style="stroke:#000000;stroke-width:1;" x1="236.5" x2="242.5" y1="695.68" y2="703.68"/><line style="stroke:#000000;stroke-width:1;" x1="236.5" x2="230.5" y1="695.68" y2="703.68"/><line style="stroke:#000000;stroke-width:1;" x1="236.5" x2="236.5" y1="695.68" y2="703.68"/><ellipse cx="236.5" cy="689.68" fill="transparent" rx="4" ry="4" style="stroke:#000000;stroke-width:1;"/><text fill="#000000" font-family="Verdana" font-size="13" lengthAdjust="spacing" textLength="54.5645" x="181.5" y="363.6169">receives</text></g><!--link users to schedules--><g id="link_users_schedules"><path codeLine="80" d="M156.83,113.37 C156.83,207.77 156.83,394.8 156.83,500.94 " fill="transparent" id="users-schedules" style="stroke:#000000;stroke-width:1;"/><line style="stroke:#000000;stroke-width:1;" x1="152.83" x2="160.83" y1="109.37" y2="109.37"/><line style="stroke:#000000;stroke-width:1;" x1="152.83" x2="160.83" y1="112.37" y2="112.37"/><line style="stroke:#000000;stroke-width:1;" x1="156.83" x2="156.83" y1="113.37" y2="105.37"/><line style="stroke:#000000;stroke-width:1;" x1="156.83" x2="162.83" y1="510.94" y2="518.94"/><line style="stroke:#000000;stroke-width:1;" x1="156.83" x2="150.83" y1="510.94" y2="518.94"/><line style="stroke:#000000;stroke-width:1;" x1="156.83" x2="156.83" y1="510.94" y2="518.94"/><ellipse cx="156.83" cy="504.94" fill="transparent" rx="4" ry="4" style="stroke:#000000;stroke-width:1;"/><text fill="#000000" font-family="Verdana" font-size="13" lengthAdjust="spacing" textLength="48.3247" x="107.83" y="308.2269">creates</text></g><!--link devices to schedules--><g id="link_devices_schedules"><path codeLine="81" d="M333.33,467.24 C333.33,499.86 333.33,525 333.33,525 C333.33,525 293.42,525 237.31,525 " fill="transparent" id="devices-schedules" style="stroke:#000000;stroke-width:1;"/><line style="stroke:#000000;stroke-width:1;" x1="329.33" x2="337.33" y1="463.24" y2="463.24"/><line style="stroke:#000000;stroke-width:1;" x1="329.33" x2="337.33" y1="466.24" y2="466.24"/><line style="stroke:#000000;stroke-width:1;" x1="333.33" x2="333.33" y1="467.24" y2="459.24"/><line style="stroke:#000000;stroke-width:1;" x1="227.31" x2="219.31" y1="525" y2="531"/><line style="stroke:#000000;stroke-width:1;" x1="227.31" x2="219.31" y1="525" y2="519"/><line style="stroke:#000000;stroke-width:1;" x1="227.31" x2="219.31" y1="525" y2="525"/><ellipse cx="233.31" cy="525" fill="transparent" rx="4" ry="4" style="stroke:#000000;stroke-width:1;"/><text fill="#000000" font-family="Verdana" font-size="13" lengthAdjust="spacing" textLength="87.6548" x="221.2" y="521.0669">controlled_by</text></g><!--link users to zones--><g id="link_users_zones"><path codeLine="82" d="M372.05,59 C501.98,59 696.5,59 696.5,59 C696.5,59 696.5,239.34 696.5,331.93 " fill="transparent" id="users-zones" style="stroke:#000000;stroke-width:1;"/><line style="stroke:#000000;stroke-width:1;" x1="368.05" x2="368.05" y1="63" y2="55"/><line style="stroke:#000000;stroke-width:1;" x1="371.05" x2="371.05" y1="63" y2="55"/><line style="stroke:#000000;stroke-width:1;" x1="372.05" x2="364.05" y1="59" y2="59"/><line style="stroke:#000000;stroke-width:1;" x1="696.5" x2="702.5" y1="341.93" y2="349.93"/><line style="stroke:#000000;stroke-width:1;" x1="696.5" x2="690.5" y1="341.93" y2="349.93"/><line style="stroke:#000000;stroke-width:1;" x1="696.5" x2="696.5" y1="341.93" y2="349.93"/><ellipse cx="696.5" cy="335.93" fill="transparent" rx="4" ry="4" style="stroke:#000000;stroke-width:1;"/><text fill="#000000" font-family="Verdana" font-size="13" lengthAdjust="spacing" textLength="48.3247" x="626.74" y="55.0669">creates</text></g><!--link zones to device_zones--><g id="link_zones_device_zones"><path codeLine="83" d="M752.5,451.18 C752.5,482.01 752.5,495.92 752.5,524.94 " fill="transparent" id="zones-device_zones" style="stroke:#000000;stroke-width:1;"/><line style="stroke:#000000;stroke-width:1;" x1="748.5" x2="756.5" y1="447.18" y2="447.18"/><line style="stroke:#000000;stroke-width:1;" x1="748.5" x2="756.5" y1="450.18" y2="450.18"/><line style="stroke:#000000;stroke-width:1;" x1="752.5" x2="752.5" y1="451.18" y2="443.18"/><line style="stroke:#000000;stroke-width:1;" x1="752.5" x2="758.5" y1="534.94" y2="542.94"/><line style="stroke:#000000;stroke-width:1;" x1="752.5" x2="746.5" y1="534.94" y2="542.94"/><line style="stroke:#000000;stroke-width:1;" x1="752.5" x2="752.5" y1="534.94" y2="542.94"/><ellipse cx="752.5" cy="528.94" fill="transparent" rx="4" ry="4" style="stroke:#000000;stroke-width:1;"/><text fill="#000000" font-family="Verdana" font-size="13" lengthAdjust="spacing" textLength="55.0278" x="696.5" y="489.1269">contains</text></g><!--link devices to device_zones--><g id="link_devices_device_zones"><path codeLine="84" d="M468.96,451 C573.97,451 726,451 726,451 C726,451 726,486.23 726,524.7 " fill="transparent" id="devices-device_zones" style="stroke:#000000;stroke-width:1;"/><line style="stroke:#000000;stroke-width:1;" x1="464.96" x2="464.96" y1="455" y2="447"/><line style="stroke:#000000;stroke-width:1;" x1="467.96" x2="467.96" y1="455" y2="447"/><line style="stroke:#000000;stroke-width:1;" x1="468.96" x2="460.96" y1="451" y2="451"/><line style="stroke:#000000;stroke-width:1;" x1="726" x2="732" y1="534.7" y2="542.7"/><line style="stroke:#000000;stroke-width:1;" x1="726" x2="720" y1="534.7" y2="542.7"/><line style="stroke:#000000;stroke-width:1;" x1="726" x2="726" y1="534.7" y2="542.7"/><ellipse cx="726" cy="528.7" fill="transparent" rx="4" ry="4" style="stroke:#000000;stroke-width:1;"/><text fill="#000000" font-family="Verdana" font-size="13" lengthAdjust="spacing" textLength="70.6304" x="568.33" y="464.0669">belongs_to</text></g><!--link users to house--><g id="link_users_house"><path codeLine="85" d="M257.5,113.07 C257.5,131.73 257.5,137.38 257.5,156.79 " fill="transparent" id="users-house" style="stroke:#000000;stroke-width:1;"/><line style="stroke:#000000;stroke-width:1;" x1="253.5" x2="261.5" y1="109.07" y2="109.07"/><line style="stroke:#000000;stroke-width:1;" x1="253.5" x2="261.5" y1="112.07" y2="112.07"/><line style="stroke:#000000;stroke-width:1;" x1="257.5" x2="257.5" y1="113.07" y2="105.07"/><line style="stroke:#000000;stroke-width:1;" x1="261.5" x2="253.5" y1="160.79" y2="160.79"/><line style="stroke:#000000;stroke-width:1;" x1="261.5" x2="253.5" y1="157.79" y2="157.79"/><line style="stroke:#000000;stroke-width:1;" x1="257.5" x2="257.5" y1="156.79" y2="164.79"/><text fill="#000000" font-family="Verdana" font-size="13" lengthAdjust="spacing" textLength="33.5981" x="223.5" y="130.9969">owns</text></g><!--link house to devices--><g id="link_house_devices"><path codeLine="86" d="M314.5,282.05 C314.5,300.94 314.5,296.27 314.5,315.77 " fill="transparent" id="house-devices" style="stroke:#000000;stroke-width:1;"/><line style="stroke:#000000;stroke-width:1;" x1="310.5" x2="318.5" y1="278.05" y2="278.05"/><line style="stroke:#000000;stroke-width:1;" x1="310.5" x2="318.5" y1="281.05" y2="281.05"/><line style="stroke:#000000;stroke-width:1;" x1="314.5" x2="314.5" y1="282.05" y2="274.05"/><line style="stroke:#000000;stroke-width:1;" x1="314.5" x2="320.5" y1="325.77" y2="333.77"/><line style="stroke:#000000;stroke-width:1;" x1="314.5" x2="308.5" y1="325.77" y2="333.77"/><line style="stroke:#000000;stroke-width:1;" x1="314.5" x2="314.5" y1="325.77" y2="333.77"/><ellipse cx="314.5" cy="319.77" fill="transparent" rx="4" ry="4" style="stroke:#000000;stroke-width:1;"/><text fill="#000000" font-family="Verdana" font-size="13" lengthAdjust="spacing" textLength="22.9785" x="291.5" y="299.9769">has</text></g><!--SRC=[dLLRRjD05FttAeR-y92o0Qkgb48g2hIf-a3yMLFx4ezmPYBF95Le-6XH9H18x80r0A9I12Hh6E-8EpDsuaTIGNwi-_8zPuxlNCitZ0zeIliaOHpKU014f2eMtZqLGn_88A6CUzvzehzcLtgcv_g7dcMVz2t9hhBtsKSJGkjQJya3VCxrx-op_gNdcDRVz1zRYJMtcFcUtU3pfvwwy4CFk69gJBQ64bAvHQWarYAN7Y6FZ1cmYFZax6p_2TdUFdg-iuE9Lgl8SehyVFAoVVpuQVlOH0TKoWkHHa5CPLnAlVCMM16CM0WEBRSTddFM8pRHh5YLY5HK3MKrrZZ7dkdQO1H8K8hndcDME8vQxgtdjeBxdiiNxyeWeefY-jb9zt2t30yZj1ogCnscjJT2LAmFA4H_WAdJ_OFEoMdxu6ZPigdQEcPSAFQQXLGnmHt1IiJnB8Vk7fULP4F15U8PgfrNfoR2P902DQMxtUwBJlkmJ4c6CKJ399-VXPT_fjpTWCOTSjBG7AqsPmMIqNhrdByLF6TfBSVGcFypuVywkqkmSc3jlIgErg1JRnyBP63xMiirjEP6axbMVXf5AKXPLTAkl6kxtpxW_fhfQVR5SmjgCccrnELYV_X4N73f5MwUpM-JJth08QKAgXMJoVAM-mGNbfU_O5-kJhfFLCfwFOIk4gXNfH026q6jQZccFWbnjkjCwYLu9LAH9105v-Dg9_TPbrsSNr4ZMDHW6_nrDA1gPUUG2BEUb2X1eJRkW-VAEgUXEehs5m00]--></g></svg>