
<svg xmlns="http://www.w3.org/2000/svg" xmlns:xlink="http://www.w3.org/1999/xlink" contentStyleType="text/css" data-diagram-type="CLASS" height="652px" preserveAspectRatio="none" style="width:883px;height:652px;background:#FFFFFF;" version="1.1" viewBox="0 0 883 652" width="883px" zoomAndPan="magnify"><defs/><g><!--class users--><g class="entity" data-entity="users" data-source-line="5" data-uid="ent0002" id="entity_users"><rect fill="#FFFFFF" height="92.8906" rx="2.5" ry="2.5" style="stroke:#000000;stroke-width:1;" width="213.4375" x="166.02" y="12"/><ellipse cx="250.0737" cy="26" fill="#FFFFFF" rx="9" ry="9" style="stroke:#000000;stroke-width:1;"/><path d="M254.1831,32 L246.4643,32 L246.4643,19.6094 L254.1831,19.6094 L254.1831,21.7656 L248.9175,21.7656 L248.9175,24.4375 L253.6831,24.4375 L253.6831,26.5938 L248.9175,26.5938 L248.9175,29.8438 L254.1831,29.8438 L254.1831,32 Z " fill="#000000"/><text fill="#000000" font-family="Verdana" font-size="14" lengthAdjust="spacing" textLength="37.8301" x="267.5737" y="30.8467">users</text><line style="stroke:#000000;stroke-width:1;" x1="167.02" x2="378.4575" y1="40" y2="40"/><ellipse cx="177.02" cy="53.6484" fill="#FFFFFF" rx="3" ry="3" style="stroke:#000000;stroke-width:1;"/><text fill="#000000" font-family="Verdana" font-size="14" lengthAdjust="spacing" textLength="138.5371" x="184.02" y="56.9951">user_id : UUID &#171;PK&#187;</text><line style="stroke:#000000;stroke-width:1;" x1="167.02" x2="378.4575" y1="64.2969" y2="64.2969"/><ellipse cx="177.02" cy="77.9453" fill="#FFFFFF" rx="3" ry="3" style="stroke:#000000;stroke-width:1;"/><text fill="#000000" font-family="Verdana" font-size="14" lengthAdjust="spacing" textLength="152.3457" x="184.02" y="81.292">username : VARCHAR</text><ellipse cx="177.02" cy="94.2422" fill="#FFFFFF" rx="3" ry="3" style="stroke:#000000;stroke-width:1;"/><text fill="#000000" font-family="Verdana" font-size="14" lengthAdjust="spacing" textLength="189.4375" x="184.02" y="97.5889">password_hash : VARCHAR</text></g><!--class devices--><g class="entity" data-entity="devices" data-source-line="12" data-uid="ent0003" id="entity_devices"><rect fill="#FFFFFF" height="125.4844" rx="2.5" ry="2.5" style="stroke:#000000;stroke-width:1;" width="177.9863" x="255.75" y="164.89"/><ellipse cx="314.3535" cy="178.89" fill="#FFFFFF" rx="9" ry="9" style="stroke:#000000;stroke-width:1;"/><path d="M318.4629,184.89 L310.7441,184.89 L310.7441,172.4994 L318.4629,172.4994 L318.4629,174.6556 L313.1973,174.6556 L313.1973,177.3275 L317.9629,177.3275 L317.9629,179.4837 L313.1973,179.4837 L313.1973,182.7337 L318.4629,182.7337 L318.4629,184.89 Z " fill="#000000"/><text fill="#000000" font-family="Verdana" font-size="14" lengthAdjust="spacing" textLength="53.2793" x="331.8535" y="183.7367">devices</text><line style="stroke:#000000;stroke-width:1;" x1="256.75" x2="432.7363" y1="192.89" y2="192.89"/><ellipse cx="266.75" cy="206.5384" fill="#FFFFFF" rx="3" ry="3" style="stroke:#000000;stroke-width:1;"/><text fill="#000000" font-family="Verdana" font-size="14" lengthAdjust="spacing" textLength="153.9863" x="273.75" y="209.8851">device_id : UUID &#171;PK&#187;</text><line style="stroke:#000000;stroke-width:1;" x1="256.75" x2="432.7363" y1="217.1869" y2="217.1869"/><ellipse cx="266.75" cy="230.8353" fill="#FFFFFF" rx="3" ry="3" style="stroke:#000000;stroke-width:1;"/><text fill="#000000" font-family="Verdana" font-size="14" lengthAdjust="spacing" textLength="121.8096" x="273.75" y="234.182">name : VARCHAR</text><ellipse cx="266.75" cy="247.1322" fill="#FFFFFF" rx="3" ry="3" style="stroke:#000000;stroke-width:1;"/><text fill="#000000" font-family="Verdana" font-size="14" lengthAdjust="spacing" textLength="113.3809" x="273.75" y="250.4789">type : VARCHAR</text><ellipse cx="266.75" cy="263.4291" fill="#FFFFFF" rx="3" ry="3" style="stroke:#000000;stroke-width:1;"/><text fill="#000000" font-family="Verdana" font-size="14" lengthAdjust="spacing" textLength="125.125" x="273.75" y="266.7757">status : VARCHAR</text><ellipse cx="266.75" cy="279.7259" fill="#FFFFFF" rx="3" ry="3" style="stroke:#000000;stroke-width:1;"/><text fill="#000000" font-family="Verdana" font-size="14" lengthAdjust="spacing" textLength="138.1475" x="273.75" y="283.0726">user_id : UUID &#171;FK&#187;</text></g><!--class settings--><g class="entity" data-entity="settings" data-source-line="21" data-uid="ent0004" id="entity_settings"><rect fill="#FFFFFF" height="92.8906" rx="2.5" ry="2.5" style="stroke:#000000;stroke-width:1;" width="180.5361" x="254.47" y="366.67"/><ellipse cx="287.1448" cy="380.67" fill="#FFFFFF" rx="9" ry="9" style="stroke:#000000;stroke-width:1;"/><path d="M291.2541,386.67 L283.5354,386.67 L283.5354,374.2794 L291.2541,374.2794 L291.2541,376.4356 L285.9885,376.4356 L285.9885,379.1075 L290.7541,379.1075 L290.7541,381.2637 L285.9885,381.2637 L285.9885,384.5137 L291.2541,384.5137 L291.2541,386.67 Z " fill="#000000"/><text fill="#000000" font-family="Verdana" font-size="14" lengthAdjust="spacing" textLength="108.8145" x="303.5169" y="385.5167">device_settings</text><line style="stroke:#000000;stroke-width:1;" x1="255.47" x2="434.0061" y1="394.67" y2="394.67"/><ellipse cx="265.47" cy="408.3184" fill="#FFFFFF" rx="3" ry="3" style="stroke:#000000;stroke-width:1;"/><text fill="#000000" font-family="Verdana" font-size="14" lengthAdjust="spacing" textLength="156.5361" x="272.47" y="411.6651">setting_id : UUID &#171;PK&#187;</text><line style="stroke:#000000;stroke-width:1;" x1="255.47" x2="434.0061" y1="418.9669" y2="418.9669"/><ellipse cx="265.47" cy="432.6153" fill="#FFFFFF" rx="3" ry="3" style="stroke:#000000;stroke-width:1;"/><text fill="#000000" font-family="Verdana" font-size="14" lengthAdjust="spacing" textLength="153.5967" x="272.47" y="435.962">device_id : UUID &#171;FK&#187;</text><ellipse cx="265.47" cy="448.9122" fill="#FFFFFF" rx="3" ry="3" style="stroke:#000000;stroke-width:1;"/><text fill="#000000" font-family="Verdana" font-size="14" lengthAdjust="spacing" textLength="152.0928" x="272.47" y="452.2589">settings_data : JSONB</text></g><!--class events--><g class="entity" data-entity="events" data-source-line="28" data-uid="ent0005" id="entity_events"><rect fill="#FFFFFF" height="125.4844" rx="2.5" ry="2.5" style="stroke:#000000;stroke-width:1;" width="194.2764" x="469.6" y="350.38"/><ellipse cx="539.4042" cy="364.38" fill="#FFFFFF" rx="9" ry="9" style="stroke:#000000;stroke-width:1;"/><path d="M543.5136,370.38 L535.7948,370.38 L535.7948,357.9894 L543.5136,357.9894 L543.5136,360.1456 L538.2479,360.1456 L538.2479,362.8175 L543.0136,362.8175 L543.0136,364.9737 L538.2479,364.9737 L538.2479,368.2237 L543.5136,368.2237 L543.5136,370.38 Z " fill="#000000"/><text fill="#000000" font-family="Verdana" font-size="14" lengthAdjust="spacing" textLength="47.168" x="556.9042" y="369.2267">events</text><line style="stroke:#000000;stroke-width:1;" x1="470.6" x2="662.8764" y1="378.38" y2="378.38"/><ellipse cx="480.6" cy="392.0284" fill="#FFFFFF" rx="3" ry="3" style="stroke:#000000;stroke-width:1;"/><text fill="#000000" font-family="Verdana" font-size="14" lengthAdjust="spacing" textLength="147.875" x="487.6" y="395.3751">event_id : UUID &#171;PK&#187;</text><line style="stroke:#000000;stroke-width:1;" x1="470.6" x2="662.8764" y1="402.6769" y2="402.6769"/><ellipse cx="480.6" cy="416.3253" fill="#FFFFFF" rx="3" ry="3" style="stroke:#000000;stroke-width:1;"/><text fill="#000000" font-family="Verdana" font-size="14" lengthAdjust="spacing" textLength="153.5967" x="487.6" y="419.672">device_id : UUID &#171;FK&#187;</text><ellipse cx="480.6" cy="432.6222" fill="#FFFFFF" rx="3" ry="3" style="stroke:#000000;stroke-width:1;"/><text fill="#000000" font-family="Verdana" font-size="14" lengthAdjust="spacing" textLength="170.2764" x="487.6" y="435.9689">timestamp : TIMESTAMP</text><ellipse cx="480.6" cy="448.9191" fill="#FFFFFF" rx="3" ry="3" style="stroke:#000000;stroke-width:1;"/><text fill="#000000" font-family="Verdana" font-size="14" lengthAdjust="spacing" textLength="160.2549" x="487.6" y="452.2657">event_type : VARCHAR</text><ellipse cx="480.6" cy="465.2159" fill="#FFFFFF" rx="3" ry="3" style="stroke:#000000;stroke-width:1;"/><text fill="#000000" font-family="Verdana" font-size="14" lengthAdjust="spacing" textLength="89.2637" x="487.6" y="468.5626">data : JSONB</text></g><!--class notifications--><g class="entity" data-entity="notifications" data-source-line="37" data-uid="ent0006" id="entity_notifications"><rect fill="#FFFFFF" height="109.1875" rx="2.5" ry="2.5" style="stroke:#000000;stroke-width:1;" width="210.7305" x="157.37" y="535.86"/><ellipse cx="215.9735" cy="549.86" fill="#FFFFFF" rx="9" ry="9" style="stroke:#000000;stroke-width:1;"/><path d="M220.0829,555.86 L212.3641,555.86 L212.3641,543.4694 L220.0829,543.4694 L220.0829,545.6256 L214.8173,545.6256 L214.8173,548.2975 L219.5829,548.2975 L219.5829,550.4537 L214.8173,550.4537 L214.8173,553.7037 L220.0829,553.7037 L220.0829,555.86 Z " fill="#000000"/><text fill="#000000" font-family="Verdana" font-size="14" lengthAdjust="spacing" textLength="86.0234" x="233.4735" y="554.7067">notifications</text><line style="stroke:#000000;stroke-width:1;" x1="158.37" x2="367.1005" y1="563.86" y2="563.86"/><ellipse cx="168.37" cy="577.5084" fill="#FFFFFF" rx="3" ry="3" style="stroke:#000000;stroke-width:1;"/><text fill="#000000" font-family="Verdana" font-size="14" lengthAdjust="spacing" textLength="186.7305" x="175.37" y="580.8551">notification_id : UUID &#171;PK&#187;</text><line style="stroke:#000000;stroke-width:1;" x1="158.37" x2="367.1005" y1="588.1569" y2="588.1569"/><ellipse cx="168.37" cy="601.8053" fill="#FFFFFF" rx="3" ry="3" style="stroke:#000000;stroke-width:1;"/><text fill="#000000" font-family="Verdana" font-size="14" lengthAdjust="spacing" textLength="138.1475" x="175.37" y="605.152">user_id : UUID &#171;FK&#187;</text><ellipse cx="168.37" cy="618.1022" fill="#FFFFFF" rx="3" ry="3" style="stroke:#000000;stroke-width:1;"/><text fill="#000000" font-family="Verdana" font-size="14" lengthAdjust="spacing" textLength="102.7578" x="175.37" y="621.4489">content : TEXT</text><ellipse cx="168.37" cy="634.3991" fill="#FFFFFF" rx="3" ry="3" style="stroke:#000000;stroke-width:1;"/><text fill="#000000" font-family="Verdana" font-size="14" lengthAdjust="spacing" textLength="131.9746" x="175.37" y="637.7457">is_read : BOOLEAN</text></g><!--class schedules--><g class="entity" data-entity="schedules" data-source-line="45" data-uid="ent0007" id="entity_schedules"><rect fill="#FFFFFF" height="125.4844" rx="2.5" ry="2.5" style="stroke:#000000;stroke-width:1;" width="207.4766" x="12" y="350.38"/><ellipse cx="76.9712" cy="364.38" fill="#FFFFFF" rx="9" ry="9" style="stroke:#000000;stroke-width:1;"/><path d="M81.0806,370.38 L73.3618,370.38 L73.3618,357.9894 L81.0806,357.9894 L81.0806,360.1456 L75.8149,360.1456 L75.8149,362.8175 L80.5806,362.8175 L80.5806,364.9737 L75.8149,364.9737 L75.8149,368.2237 L81.0806,368.2237 L81.0806,370.38 Z " fill="#000000"/><text fill="#000000" font-family="Verdana" font-size="14" lengthAdjust="spacing" textLength="70.0342" x="94.4712" y="369.2267">schedules</text><line style="stroke:#000000;stroke-width:1;" x1="13" x2="218.4766" y1="378.38" y2="378.38"/><ellipse cx="23" cy="392.0284" fill="#FFFFFF" rx="3" ry="3" style="stroke:#000000;stroke-width:1;"/><text fill="#000000" font-family="Verdana" font-size="14" lengthAdjust="spacing" textLength="170.7412" x="30" y="395.3751">schedule_id : UUID &#171;PK&#187;</text><line style="stroke:#000000;stroke-width:1;" x1="13" x2="218.4766" y1="402.6769" y2="402.6769"/><ellipse cx="23" cy="416.3253" fill="#FFFFFF" rx="3" ry="3" style="stroke:#000000;stroke-width:1;"/><text fill="#000000" font-family="Verdana" font-size="14" lengthAdjust="spacing" textLength="138.1475" x="30" y="419.672">user_id : UUID &#171;FK&#187;</text><ellipse cx="23" cy="432.6222" fill="#FFFFFF" rx="3" ry="3" style="stroke:#000000;stroke-width:1;"/><text fill="#000000" font-family="Verdana" font-size="14" lengthAdjust="spacing" textLength="153.5967" x="30" y="435.9689">device_id : UUID &#171;FK&#187;</text><ellipse cx="23" cy="448.9191" fill="#FFFFFF" rx="3" ry="3" style="stroke:#000000;stroke-width:1;"/><text fill="#000000" font-family="Verdana" font-size="14" lengthAdjust="spacing" textLength="125.2002" x="30" y="452.2657">action : VARCHAR</text><ellipse cx="23" cy="465.2159" fill="#FFFFFF" rx="3" ry="3" style="stroke:#000000;stroke-width:1;"/><text fill="#000000" font-family="Verdana" font-size="14" lengthAdjust="spacing" textLength="183.4766" x="30" y="468.5626">schedule_time : VARCHAR</text></g><!--class zones--><g class="entity" data-entity="zones" data-source-line="54" data-uid="ent0008" id="entity_zones"><rect fill="#FFFFFF" height="92.8906" rx="2.5" ry="2.5" style="stroke:#000000;stroke-width:1;" width="165.4014" x="587.04" y="181.19"/><ellipse cx="645.6435" cy="195.19" fill="#FFFFFF" rx="9" ry="9" style="stroke:#000000;stroke-width:1;"/><path d="M649.7529,201.19 L642.0341,201.19 L642.0341,188.7994 L649.7529,188.7994 L649.7529,190.9556 L644.4873,190.9556 L644.4873,193.6275 L649.2529,193.6275 L649.2529,195.7837 L644.4873,195.7837 L644.4873,199.0337 L649.7529,199.0337 L649.7529,201.19 Z " fill="#000000"/><text fill="#000000" font-family="Verdana" font-size="14" lengthAdjust="spacing" textLength="40.6943" x="663.1435" y="200.0367">zones</text><line style="stroke:#000000;stroke-width:1;" x1="588.04" x2="751.4414" y1="209.19" y2="209.19"/><ellipse cx="598.04" cy="222.8384" fill="#FFFFFF" rx="3" ry="3" style="stroke:#000000;stroke-width:1;"/><text fill="#000000" font-family="Verdana" font-size="14" lengthAdjust="spacing" textLength="141.4014" x="605.04" y="226.1851">zone_id : UUID &#171;PK&#187;</text><line style="stroke:#000000;stroke-width:1;" x1="588.04" x2="751.4414" y1="233.4869" y2="233.4869"/><ellipse cx="598.04" cy="247.1353" fill="#FFFFFF" rx="3" ry="3" style="stroke:#000000;stroke-width:1;"/><text fill="#000000" font-family="Verdana" font-size="14" lengthAdjust="spacing" textLength="121.8096" x="605.04" y="250.482">name : VARCHAR</text><ellipse cx="598.04" cy="263.4322" fill="#FFFFFF" rx="3" ry="3" style="stroke:#000000;stroke-width:1;"/><text fill="#000000" font-family="Verdana" font-size="14" lengthAdjust="spacing" textLength="138.1475" x="605.04" y="266.7789">user_id : UUID &#171;FK&#187;</text></g><!--class device_zones--><g class="entity" data-entity="device_zones" data-source-line="61" data-uid="ent0009" id="entity_device_zones"><rect fill="#FFFFFF" height="76.5938" rx="2.5" ry="2.5" style="stroke:#000000;stroke-width:1;" width="177.5967" x="698.94" y="374.82"/><ellipse cx="737.1485" cy="388.82" fill="#FFFFFF" rx="9" ry="9" style="stroke:#000000;stroke-width:1;"/><path d="M741.2579,394.82 L733.5391,394.82 L733.5391,382.4294 L741.2579,382.4294 L741.2579,384.5856 L735.9922,384.5856 L735.9922,387.2575 L740.7579,387.2575 L740.7579,389.4137 L735.9922,389.4137 L735.9922,392.6637 L741.2579,392.6637 L741.2579,394.82 Z " fill="#000000"/><text fill="#000000" font-family="Verdana" font-size="14" lengthAdjust="spacing" textLength="93.6797" x="754.6485" y="393.6667">device_zones</text><line style="stroke:#000000;stroke-width:1;" x1="699.94" x2="875.5367" y1="402.82" y2="402.82"/><ellipse cx="709.94" cy="416.4684" fill="#FFFFFF" rx="3" ry="3" style="stroke:#000000;stroke-width:1;"/><text fill="#000000" font-family="Verdana" font-size="14" lengthAdjust="spacing" textLength="153.5967" x="716.94" y="419.8151">device_id : UUID &#171;FK&#187;</text><ellipse cx="709.94" cy="432.7653" fill="#FFFFFF" rx="3" ry="3" style="stroke:#000000;stroke-width:1;"/><text fill="#000000" font-family="Verdana" font-size="14" lengthAdjust="spacing" textLength="141.0117" x="716.94" y="436.112">zone_id : UUID &#171;FK&#187;</text><line style="stroke:#000000;stroke-width:1;" x1="699.94" x2="875.5367" y1="443.4137" y2="443.4137"/></g><!--link users to devices--><g class="link" data-entity-1="users" data-entity-2="devices" data-source-line="67" data-uid="lnk10" id="link_users_devices"><path codeLine="67" d="M317.6,113.13 C317.6,131.52 317.6,126.92 317.6,146.64" fill="none" id="users-devices" style="stroke:#000000;stroke-width:1;"/><line style="stroke:#000000;stroke-width:1;" x1="313.6" x2="321.6" y1="109.13" y2="109.13"/><line style="stroke:#000000;stroke-width:1;" x1="313.6" x2="321.6" y1="112.13" y2="112.13"/><line style="stroke:#000000;stroke-width:1;" x1="317.6" x2="317.6" y1="113.13" y2="105.13"/><line style="stroke:#000000;stroke-width:1;" x1="317.6" x2="323.6" y1="156.64" y2="164.64"/><line style="stroke:#000000;stroke-width:1;" x1="317.6" x2="311.6" y1="156.64" y2="164.64"/><line style="stroke:#000000;stroke-width:1;" x1="317.6" x2="317.6" y1="156.64" y2="164.64"/><ellipse cx="317.6" cy="150.64" fill="none" rx="4" ry="4" style="stroke:#000000;stroke-width:1;"/><text fill="#000000" font-family="Verdana" font-size="13" lengthAdjust="spacing" textLength="33.5981" x="283.6" y="130.9469">owns</text></g><!--link devices to events--><g class="link" data-entity-1="devices" data-entity-2="events" data-source-line="68" data-uid="lnk11" id="link_devices_events"><path codeLine="68" d="M442.11,285.05 C488.8,285.05 528.32,285.05 528.32,285.05 C528.32,285.05 528.32,299.82 528.32,332.21" fill="none" id="devices-events" style="stroke:#000000;stroke-width:1;"/><line style="stroke:#000000;stroke-width:1;" x1="438.11" x2="438.11" y1="289.05" y2="281.05"/><line style="stroke:#000000;stroke-width:1;" x1="441.11" x2="441.11" y1="289.05" y2="281.05"/><line style="stroke:#000000;stroke-width:1;" x1="442.11" x2="434.11" y1="285.05" y2="285.05"/><line style="stroke:#000000;stroke-width:1;" x1="528.32" x2="534.32" y1="342.21" y2="350.21"/><line style="stroke:#000000;stroke-width:1;" x1="528.32" x2="522.32" y1="342.21" y2="350.21"/><line style="stroke:#000000;stroke-width:1;" x1="528.32" x2="528.32" y1="342.21" y2="350.21"/><ellipse cx="528.32" cy="336.21" fill="none" rx="4" ry="4" style="stroke:#000000;stroke-width:1;"/><text fill="#000000" font-family="Verdana" font-size="13" lengthAdjust="spacing" textLength="65.6665" x="447.79" y="281.1169">generates</text></g><!--link devices to settings--><g class="link" data-entity-1="devices" data-entity-2="settings" data-source-line="69" data-uid="lnk12" id="link_devices_settings"><path codeLine="69" d="M344.74,298.69 C344.74,323.48 344.74,335.42 344.74,358.35" fill="none" id="devices-settings" style="stroke:#000000;stroke-width:1;"/><line style="stroke:#000000;stroke-width:1;" x1="340.74" x2="348.74" y1="294.69" y2="294.69"/><line style="stroke:#000000;stroke-width:1;" x1="340.74" x2="348.74" y1="297.69" y2="297.69"/><line style="stroke:#000000;stroke-width:1;" x1="344.74" x2="344.74" y1="298.69" y2="290.69"/><line style="stroke:#000000;stroke-width:1;" x1="348.74" x2="340.74" y1="362.35" y2="362.35"/><line style="stroke:#000000;stroke-width:1;" x1="348.74" x2="340.74" y1="359.35" y2="359.35"/><line style="stroke:#000000;stroke-width:1;" x1="344.74" x2="344.74" y1="358.35" y2="366.35"/><text fill="#000000" font-family="Verdana" font-size="13" lengthAdjust="spacing" textLength="22.9785" x="321.74" y="324.5869">has</text></g><!--link events to notifications--><g class="link" data-entity-1="events" data-entity-2="notifications" data-source-line="70" data-uid="lnk13" id="link_events_notifications"><path codeLine="70" d="M469.43,468.05 C397.24,468.05 311.29,468.05 311.29,468.05 C311.29,468.05 311.29,485.11 311.29,517.7" fill="none" id="events-to-notifications" style="stroke:#000000;stroke-width:1;"/><line style="stroke:#000000;stroke-width:1;" x1="311.29" x2="317.29" y1="527.7" y2="535.7"/><line style="stroke:#000000;stroke-width:1;" x1="311.29" x2="305.29" y1="527.7" y2="535.7"/><line style="stroke:#000000;stroke-width:1;" x1="311.29" x2="311.29" y1="527.7" y2="535.7"/><ellipse cx="311.29" cy="521.7" fill="none" rx="4" ry="4" style="stroke:#000000;stroke-width:1;"/><text fill="#000000" font-family="Verdana" font-size="13" lengthAdjust="spacing" textLength="50.6733" x="305.54" y="481.1169">triggers</text></g><!--link users to notifications--><g class="link" data-entity-1="users" data-entity-2="notifications" data-source-line="71" data-uid="lnk14" id="link_users_notifications"><path codeLine="71" d="M236.97,113.19 C236.97,211.45 236.97,412.94 236.97,517.76" fill="none" id="users-notifications" style="stroke:#000000;stroke-width:1;"/><line style="stroke:#000000;stroke-width:1;" x1="232.97" x2="240.97" y1="109.19" y2="109.19"/><line style="stroke:#000000;stroke-width:1;" x1="232.97" x2="240.97" y1="112.19" y2="112.19"/><line style="stroke:#000000;stroke-width:1;" x1="236.97" x2="236.97" y1="113.19" y2="105.19"/><line style="stroke:#000000;stroke-width:1;" x1="236.97" x2="242.97" y1="527.76" y2="535.76"/><line style="stroke:#000000;stroke-width:1;" x1="236.97" x2="230.97" y1="527.76" y2="535.76"/><line style="stroke:#000000;stroke-width:1;" x1="236.97" x2="236.97" y1="527.76" y2="535.76"/><ellipse cx="236.97" cy="521.76" fill="none" rx="4" ry="4" style="stroke:#000000;stroke-width:1;"/><text fill="#000000" font-family="Verdana" font-size="13" lengthAdjust="spacing" textLength="54.5645" x="181.97" y="316.5469">receives</text></g><!--link users to schedules--><g class="link" data-entity-1="users" data-entity-2="schedules" data-source-line="72" data-uid="lnk15" id="link_users_schedules"><path codeLine="72" d="M183.84,113.18 C183.84,176.01 183.84,261.91 183.84,332.12" fill="none" id="users-schedules" style="stroke:#000000;stroke-width:1;"/><line style="stroke:#000000;stroke-width:1;" x1="179.84" x2="187.84" y1="109.18" y2="109.18"/><line style="stroke:#000000;stroke-width:1;" x1="179.84" x2="187.84" y1="112.18" y2="112.18"/><line style="stroke:#000000;stroke-width:1;" x1="183.84" x2="183.84" y1="113.18" y2="105.18"/><line style="stroke:#000000;stroke-width:1;" x1="183.84" x2="189.84" y1="342.12" y2="350.12"/><line style="stroke:#000000;stroke-width:1;" x1="183.84" x2="177.84" y1="342.12" y2="350.12"/><line style="stroke:#000000;stroke-width:1;" x1="183.84" x2="183.84" y1="342.12" y2="350.12"/><ellipse cx="183.84" cy="336.12" fill="none" rx="4" ry="4" style="stroke:#000000;stroke-width:1;"/><text fill="#000000" font-family="Verdana" font-size="13" lengthAdjust="spacing" textLength="48.3247" x="134.84" y="223.7169">creates</text></g><!--link devices to schedules--><g class="link" data-entity-1="devices" data-entity-2="schedules" data-source-line="73" data-uid="lnk16" id="link_devices_schedules"><path codeLine="73" d="M247.34,228.05 C218.42,228.05 201.66,228.05 201.66,228.05 C201.66,228.05 201.66,278.33 201.66,331.95" fill="none" id="devices-schedules" style="stroke:#000000;stroke-width:1;"/><line style="stroke:#000000;stroke-width:1;" x1="251.34" x2="251.34" y1="224.05" y2="232.05"/><line style="stroke:#000000;stroke-width:1;" x1="248.34" x2="248.34" y1="224.05" y2="232.05"/><line style="stroke:#000000;stroke-width:1;" x1="247.34" x2="255.34" y1="228.05" y2="228.05"/><line style="stroke:#000000;stroke-width:1;" x1="201.66" x2="207.66" y1="341.95" y2="349.95"/><line style="stroke:#000000;stroke-width:1;" x1="201.66" x2="195.66" y1="341.95" y2="349.95"/><line style="stroke:#000000;stroke-width:1;" x1="201.66" x2="201.66" y1="341.95" y2="349.95"/><ellipse cx="201.66" cy="335.95" fill="none" rx="4" ry="4" style="stroke:#000000;stroke-width:1;"/><text fill="#000000" font-family="Verdana" font-size="13" lengthAdjust="spacing" textLength="87.6548" x="113.66" y="258.2269">controlled_by</text></g><!--link users to zones--><g class="link" data-entity-1="users" data-entity-2="zones" data-source-line="74" data-uid="lnk17" id="link_users_zones"><path codeLine="74" d="M387.91,59.05 C505.49,59.05 669.74,59.05 669.74,59.05 C669.74,59.05 669.74,113.22 669.74,163.12" fill="none" id="users-zones" style="stroke:#000000;stroke-width:1;"/><line style="stroke:#000000;stroke-width:1;" x1="383.91" x2="383.91" y1="63.05" y2="55.05"/><line style="stroke:#000000;stroke-width:1;" x1="386.91" x2="386.91" y1="63.05" y2="55.05"/><line style="stroke:#000000;stroke-width:1;" x1="387.91" x2="379.91" y1="59.05" y2="59.05"/><line style="stroke:#000000;stroke-width:1;" x1="669.74" x2="675.74" y1="173.12" y2="181.12"/><line style="stroke:#000000;stroke-width:1;" x1="669.74" x2="663.74" y1="173.12" y2="181.12"/><line style="stroke:#000000;stroke-width:1;" x1="669.74" x2="669.74" y1="173.12" y2="181.12"/><ellipse cx="669.74" cy="167.12" fill="none" rx="4" ry="4" style="stroke:#000000;stroke-width:1;"/><text fill="#000000" font-family="Verdana" font-size="13" lengthAdjust="spacing" textLength="48.3247" x="536.86" y="55.1169">creates</text></g><!--link zones to device_zones--><g class="link" data-entity-1="zones" data-entity-2="device_zones" data-source-line="75" data-uid="lnk18" id="link_zones_device_zones"><path codeLine="75" d="M734.61,282.44 C734.61,313.35 734.61,327.37 734.61,356.46" fill="none" id="zones-device_zones" style="stroke:#000000;stroke-width:1;"/><line style="stroke:#000000;stroke-width:1;" x1="730.61" x2="738.61" y1="278.44" y2="278.44"/><line style="stroke:#000000;stroke-width:1;" x1="730.61" x2="738.61" y1="281.44" y2="281.44"/><line style="stroke:#000000;stroke-width:1;" x1="734.61" x2="734.61" y1="282.44" y2="274.44"/><line style="stroke:#000000;stroke-width:1;" x1="734.61" x2="740.61" y1="366.46" y2="374.46"/><line style="stroke:#000000;stroke-width:1;" x1="734.61" x2="728.61" y1="366.46" y2="374.46"/><line style="stroke:#000000;stroke-width:1;" x1="734.61" x2="734.61" y1="366.46" y2="374.46"/><ellipse cx="734.61" cy="360.46" fill="none" rx="4" ry="4" style="stroke:#000000;stroke-width:1;"/><text fill="#000000" font-family="Verdana" font-size="13" lengthAdjust="spacing" textLength="55.0278" x="678.61" y="320.5169">contains</text></g><!--link devices to device_zones--><g class="link" data-entity-1="devices" data-entity-2="device_zones" data-source-line="76" data-uid="lnk19" id="link_devices_device_zones"><path codeLine="76" d="M441.85,280.05 C551.91,280.05 716.77,280.05 716.77,280.05 C716.77,280.05 716.77,317.33 716.77,356.63" fill="none" id="devices-device_zones" style="stroke:#000000;stroke-width:1;"/><line style="stroke:#000000;stroke-width:1;" x1="437.85" x2="437.85" y1="284.05" y2="276.05"/><line style="stroke:#000000;stroke-width:1;" x1="440.85" x2="440.85" y1="284.05" y2="276.05"/><line style="stroke:#000000;stroke-width:1;" x1="441.85" x2="433.85" y1="280.05" y2="280.05"/><line style="stroke:#000000;stroke-width:1;" x1="716.77" x2="722.77" y1="366.63" y2="374.63"/><line style="stroke:#000000;stroke-width:1;" x1="716.77" x2="710.77" y1="366.63" y2="374.63"/><line style="stroke:#000000;stroke-width:1;" x1="716.77" x2="716.77" y1="366.63" y2="374.63"/><ellipse cx="716.77" cy="360.63" fill="none" rx="4" ry="4" style="stroke:#000000;stroke-width:1;"/><text fill="#000000" font-family="Verdana" font-size="13" lengthAdjust="spacing" textLength="70.6304" x="551.6" y="293.1169">belongs_to</text></g><!--SRC=[dLJTRjCm5BxFKnnsmu_K5uYcIHrqOi3MQUiGTv6N71gBr8vYjrDPkTZG9118l07F08X95T0-W_D6s77I_BKJx2OwVpxVvvFFHxoXB2O96K546SffZC0J6NBddWnnX117X3B7kG_gQtgf5cgfVgX5-adTG7gPlay_cf2shjGS7kZlKlrEFwjVQgdJwflwarNgcXkT-PvUw-zFDRVXXmuoIUKKjiO24x45H41cmOK3yCYO7Wt0XTFJ_IUmlNtqV6T79pgT8ik8vkV2o-xnuwVTOnEDYH3dF0cya8YmadhdhB02d50VBLfkMpphR4PiesN3gaM4978iwh7MFVPCrnOZJw2Kb0qjiyAnr79lCxSrtFTilZWhl818ejFFJlg7krLud6ZBebhJOcRsdH0b7Q4Un2ZMgS7-GUzaq3quAbksfxQ96UEIlgO-aPGpIx0MiJoheTlbifQipvdKU8PgxzN0HAZm4YIcTBVVVz7h7bOf2J_4O1pb-bbv-M_AtJlGk6MSn3TNQ-YiG3ApNg_pjvpbB3FBCZJc_oZyNxLRWbK36zzLSRKMdQ9zjcskijNoGQ-EXPgdNnox6sQpJeTVh9wk2_oS2QTmysmkP1U6o30X4kiLirdvm5pGkyB93sI7wo9pGIPqEDJGTGBDgWHzf1DiL9KASS7NiceoQPPeDIOyYZ3mpgRrJdQYPHVhrwRXhMfq6xsrMr2DiZECkDaCaly5]--></g></svg>